# File created by Blade
# Date/Time:  Thu Sep 25 19:43:58 2014
# Frame Rate: 120.000 fps
#------------------------------------------------------
:FULLY-SPECIFIED
:DEGREES
611
root 3.291468 13.534940 -9.498940 8.979612 16.146548 -22.418655
Spine -0.409250 1.415817 -39.760045
Head -6.826842 -1.325858 -37.529532
LeftShoulder -2.403081 10.061818 19.442083
LeftArm 15.328216 -6.583788 -55.502474
LeftForeArm 38.571738 0.000000 15.668494
LeftHand -31.549217 0.000000 109.950184
LeftHandThumb1 -26.253704 0.000000 33.147579
RightShoulder -23.771633 34.346464 -63.998734
RightArm 72.726024 32.533225 48.092282
RightForeArm 28.105734 -0.000000 21.545085
RightHand 3.254013 -0.000000 -3.204737
RightHandThumb1 -24.326973 -0.000000 -32.862282
LeftUpLeg -109.423560 45.004931 22.672429
LeftLeg 126.974683 -0.000000 -0.000000
LeftFoot -28.993697 -18.135357 -14.186762
LeftToeBase 3.368781 -0.000000 -0.000000
RightUpLeg -1.992951 -22.381612 -40.015737
RightLeg 7.529671 -0.000000 -0.000000
RightFoot 8.557638 -19.081989 -1.325409
RightToeBase 8.005800 -0.000000 -0.000000
612
root 3.301393 13.520351 -9.489993 8.971350 16.106796 -22.411183
Spine -0.395579 1.358006 -39.701314
Head -7.071692 -1.414716 -37.506037
LeftShoulder -2.368588 10.018073 19.463763
LeftArm 15.134957 -6.602604 -55.602710
LeftForeArm 38.598017 -0.000000 15.661999
LeftHand -31.671161 -0.000000 110.056733
LeftHandThumb1 -26.253704 0.000000 33.147579
RightShoulder -23.776217 34.337324 -64.002545
RightArm 72.729325 32.570325 48.078658
RightForeArm 28.106340 -0.000000 21.592661
RightHand 3.166432 -0.000000 -3.185631
RightHandThumb1 -24.326973 -0.000000 -32.862282
LeftUpLeg -109.355967 44.979592 22.785309
LeftLeg 127.066518 -0.000000 -0.000000
LeftFoot -29.015586 -18.057102 -14.200423
LeftToeBase 3.271972 -0.000000 -0.000000
RightUpLeg -1.979220 -22.459838 -40.056049
RightLeg 7.507505 -0.000000 -0.000000
RightFoot 8.555240 -18.990294 -1.366298
RightToeBase 8.029536 -0.000000 -0.000000
613
root 3.310533 13.506366 -9.480696 8.964578 16.050821 -22.422994
Spine -0.401740 1.304674 -39.625245
Head -7.342263 -1.491576 -37.464440
LeftShoulder -2.327724 9.895792 19.499467
LeftArm 14.845272 -6.600666 -55.718907
LeftForeArm 38.562795 -0.000000 15.672168
LeftHand -31.673126 -0.000000 110.071042
LeftHandThumb1 -26.253704 0.000000 33.147579
RightShoulder -23.792680 34.353076 -64.020993
RightArm 72.719503 32.583719 48.068425
RightForeArm 28.137661 0.000000 21.597410
RightHand 3.191737 0.000000 -3.193788
RightHandThumb1 -24.326973 -0.000000 -32.862282
LeftUpLeg -109.276036 44.992707 22.915818
LeftLeg 127.149946 -0.000000 -0.000000
LeftFoot -29.062882 -17.998969 -14.164767
LeftToeBase 3.147704 -0.000000 -0.000000
RightUpLeg -1.984612 -22.553959 -40.070395
RightLeg 7.482205 -0.000000 -0.000000
RightFoot 8.593452 -18.885189 -1.449036
RightToeBase 7.991690 -0.000000 -0.000000
614
root 3.319152 13.493033 -9.470076 8.951352 15.970545 -22.485312
Spine -0.427689 1.279933 -39.483901
Head -7.650760 -1.543046 -37.462148
LeftShoulder -2.443916 10.074618 19.412866
LeftArm 15.000262 -6.743221 -55.812557
LeftForeArm 38.637646 -0.000000 15.563982
LeftHand -31.626269 -0.000000 110.147244
LeftHandThumb1 -26.253704 0.000000 33.147579
RightShoulder -23.785487 34.291120 -64.083575
RightArm 72.721112 32.690225 48.227443
RightForeArm 28.048242 -0.000000 21.730901
RightHand 3.193769 -0.000000 -3.179449
RightHandThumb1 -24.326973 -0.000000 -32.862282
LeftUpLeg -109.214550 45.064459 23.075579
LeftLeg 127.242374 -0.000000 -0.000000
LeftFoot -29.076755 -17.978804 -14.138783
LeftToeBase 3.093745 -0.000000 -0.000000
RightUpLeg -2.016368 -22.644981 -40.022424
RightLeg 7.441778 -0.000000 -0.000000
RightFoot 8.629801 -18.776318 -1.496964
RightToeBase 8.032259 -0.000000 -0.000000
615
root 3.330053 13.479782 -9.456919 8.922973 15.891975 -22.486308
Spine -0.403396 1.238811 -39.433260
Head -8.048176 -1.581780 -37.357688
LeftShoulder -2.537992 10.148694 19.394625
LeftArm 14.982384 -6.698436 -55.862165
LeftForeArm 38.512926 -0.000000 15.537449
LeftHand -31.656919 -0.000000 110.210712
LeftHandThumb1 -26.253704 0.000000 33.147579
RightShoulder -23.858490 34.331551 -64.169128
RightArm 72.662461 32.696862 48.285892
RightForeArm 28.038323 -0.000000 21.793163
RightHand 3.150023 -0.000000 -3.227331
RightHandThumb1 -24.326973 -0.000000 -32.862282
LeftUpLeg -109.099335 45.110388 23.203993
LeftLeg 127.337049 -0.000000 -0.000000
LeftFoot -29.099085 -17.958539 -14.100774
LeftToeBase 2.968534 -0.000000 -0.000000
RightUpLeg -2.008686 -22.723491 -40.052174
RightLeg 7.409833 -0.000000 -0.000000
RightFoot 8.657606 -18.647869 -1.592722
RightToeBase 7.998498 -0.000000 -0.000000
616
root 3.340367 13.465806 -9.445396 8.908078 15.824156 -22.486854
Spine -0.391378 1.184827 -39.382966
Head -8.446524 -1.625048 -37.240999
LeftShoulder -2.532879 10.136631 19.418761
LeftArm 14.775900 -6.733248 -55.961661
LeftForeArm 38.493580 -0.000000 15.586523
LeftHand -31.671417 0.000000 110.264017
LeftHandThumb1 -26.253704 0.000000 33.147579
RightShoulder -23.950616 34.426669 -64.214104
RightArm 72.628998 32.645780 48.296610
RightForeArm 27.944167 0.000000 21.811967
RightHand 3.144122 -0.000000 -3.252762
RightHandThumb1 -24.326973 -0.000000 -32.862282
LeftUpLeg -109.020661 45.144598 23.310281
LeftLeg 127.435184 -0.000000 -0.000000
LeftFoot -29.121714 -17.908129 -14.038733
LeftToeBase 2.870937 -0.000000 -0.000000
RightUpLeg -2.008352 -22.773129 -40.079315
RightLeg 7.382491 -0.000000 -0.000000
RightFoot 8.663055 -18.574991 -1.611467
RightToeBase 8.004952 -0.000000 -0.000000
617
root 3.348448 13.454245 -9.434274 8.892065 15.756997 -22.509640
Spine -0.390626 1.145968 -39.320716
Head -8.864393 -1.686654 -37.101079
LeftShoulder -2.497904 10.103698 19.449793
LeftArm 14.544587 -6.832265 -56.081198
LeftForeArm 38.555418 -0.000000 15.641602
LeftHand -31.674535 -0.000000 110.325114
LeftHandThumb1 -26.253704 0.000000 33.147579
RightShoulder -24.002987 34.390986 -64.220741
RightArm 72.598438 32.685146 48.275264
RightForeArm 27.980445 -0.000000 21.850943
RightHand 3.166058 0.000000 -3.186416
RightHandThumb1 -24.326973 -0.000000 -32.862282
LeftUpLeg -108.946308 45.177990 23.430517
LeftLeg 127.523004 -0.000000 -0.000000
LeftFoot -29.143069 -17.828889 -13.943246
LeftToeBase 2.686599 -0.000000 -0.000000
RightUpLeg -2.017876 -22.762604 -40.070891
RightLeg 7.364138 -0.000000 -0.000000
RightFoot 8.676046 -18.558424 -1.691558
RightToeBase 7.813807 -0.000000 -0.000000
